<svg width="21" height="21" viewBox="0 0 21 21" fill="none" xmlns="http://www.w3.org/2000/svg">
<g id="delete-button 1">
<g id="&#229;&#155;&#190;&#229;&#177;&#130;_x0020_1">
<path id="Vector" fill-rule="evenodd" clip-rule="evenodd" d="M5.92683 13.3287L13.3286 5.92696C13.5058 5.74977 13.795 5.74977 13.9722 5.92696L14.5529 6.50769C14.7301 6.68488 14.7301 6.974 14.5529 7.15125L7.15113 14.553C6.97388 14.7302 6.68475 14.7302 6.50757 14.553L5.92683 13.9723C5.74965 13.7951 5.74965 13.506 5.92683 13.3287Z" fill="#FF3C76"/>
<path id="Vector_2" fill-rule="evenodd" clip-rule="evenodd" d="M13.3286 14.553L5.92683 7.15125C5.74965 6.974 5.74965 6.68488 5.92683 6.50769L6.50757 5.92696C6.68475 5.74977 6.97388 5.74977 7.15113 5.92696L14.5529 13.3287C14.7301 13.506 14.7301 13.7951 14.5529 13.9723L13.9722 14.553C13.795 14.7302 13.5058 14.7302 13.3286 14.553Z" fill="#FF3C76"/>
<path id="Vector_3" d="M10.24 0C13.0672 0 15.6272 1.14649 17.4804 2.99963C19.3335 4.85285 20.48 7.41285 20.48 10.24C20.48 13.0672 19.3335 15.6272 17.4804 17.4804C15.6272 19.3335 13.0672 20.48 10.24 20.48C7.41285 20.48 4.85285 19.3335 2.99963 17.4804C1.14649 15.6272 0 13.0672 0 10.24C0 7.41285 1.14649 4.85285 2.99963 2.99963C4.85285 1.14649 7.41285 0 10.24 0ZM16.2737 4.20626C14.7295 2.66206 12.5961 1.70667 10.24 1.70667C7.88393 1.70667 5.75053 2.66206 4.20626 4.20626C2.66206 5.75053 1.70667 7.88393 1.70667 10.24C1.70667 12.5961 2.66206 14.7295 4.20626 16.2737C5.75053 17.8179 7.88393 18.7733 10.24 18.7733C12.5961 18.7733 14.7295 17.8179 16.2737 16.2737C17.8179 14.7295 18.7733 12.5961 18.7733 10.24C18.7733 7.88393 17.8179 5.75053 16.2737 4.20626Z" fill="#FF3C76"/>
</g>
</g>
</svg>
