<svg width="40" height="40" viewBox="0 0 40 40" fill="none" xmlns="http://www.w3.org/2000/svg">
<g id="brazil-">
<g id="Group">
<path id="Vector" d="M20 40C31.0457 40 40 31.0457 40 20C40 8.95431 31.0457 0 20 0C8.95431 0 0 8.95431 0 20C0 31.0457 8.95431 40 20 40Z" fill="#009B3A"/>
<path id="Vector_2" d="M3.3335 20L20.0002 30.6666L36.6668 20L20.0002 9.33331L3.3335 20Z" fill="#FEDF00"/>
<path id="Vector_3" d="M19.9998 27.0667C23.9026 27.0667 27.0664 23.9029 27.0664 20.0001C27.0664 16.0973 23.9026 12.9334 19.9998 12.9334C16.097 12.9334 12.9331 16.0973 12.9331 20.0001C12.9331 23.9029 16.097 27.0667 19.9998 27.0667Z" fill="#002776"/>
<path id="Vector_4" d="M13.5997 17.2C13.4664 17.6 13.333 17.8667 13.1997 18.2667C18.133 17.4667 23.0664 18.8 26.7997 22.1333C26.933 21.7333 26.933 21.3333 27.0664 21.0667C23.1997 17.8667 18.3997 16.5333 13.5997 17.2Z" fill="white"/>
</g>
</g>
</svg>
