<svg width="15" height="15" viewBox="0 0 15 15" fill="none" xmlns="http://www.w3.org/2000/svg">
<g id="business-and-trade 1">
<path id="Vector" d="M8.14375 1.0575L1.275 0.0137512C0.95625 -0.0362488 0.63125 0.0512512 0.3875 0.257501C0.14375 0.470001 0 0.776251 0 1.095V14.2638C0 14.6075 0.28125 14.8888 0.625 14.8888H2.65625V11.6075C2.65625 11.0013 3.14375 10.5138 3.75 10.5138H5.3125C5.91875 10.5138 6.40625 11.0013 6.40625 11.6075V14.8888H9.0625V2.13875C9.0625 1.60125 8.675 1.145 8.14375 1.0575ZM3.4375 9.1075H2.5C2.24125 9.1075 2.03125 8.8975 2.03125 8.63875C2.03125 8.38 2.24125 8.17 2.5 8.17H3.4375C3.69625 8.17 3.90625 8.38 3.90625 8.63875C3.90625 8.8975 3.69625 9.1075 3.4375 9.1075ZM3.4375 7.2325H2.5C2.24125 7.2325 2.03125 7.0225 2.03125 6.76375C2.03125 6.505 2.24125 6.295 2.5 6.295H3.4375C3.69625 6.295 3.90625 6.505 3.90625 6.76375C3.90625 7.0225 3.69625 7.2325 3.4375 7.2325ZM3.4375 5.3575H2.5C2.24125 5.3575 2.03125 5.1475 2.03125 4.88875C2.03125 4.63 2.24125 4.42 2.5 4.42H3.4375C3.69625 4.42 3.90625 4.63 3.90625 4.88875C3.90625 5.1475 3.69625 5.3575 3.4375 5.3575ZM3.4375 3.4825H2.5C2.24125 3.4825 2.03125 3.2725 2.03125 3.01375C2.03125 2.755 2.24125 2.545 2.5 2.545H3.4375C3.69625 2.545 3.90625 2.755 3.90625 3.01375C3.90625 3.2725 3.69625 3.4825 3.4375 3.4825ZM6.5625 9.1075H5.625C5.36625 9.1075 5.15625 8.8975 5.15625 8.63875C5.15625 8.38 5.36625 8.17 5.625 8.17H6.5625C6.82125 8.17 7.03125 8.38 7.03125 8.63875C7.03125 8.8975 6.82125 9.1075 6.5625 9.1075ZM6.5625 7.2325H5.625C5.36625 7.2325 5.15625 7.0225 5.15625 6.76375C5.15625 6.505 5.36625 6.295 5.625 6.295H6.5625C6.82125 6.295 7.03125 6.505 7.03125 6.76375C7.03125 7.0225 6.82125 7.2325 6.5625 7.2325ZM6.5625 5.3575H5.625C5.36625 5.3575 5.15625 5.1475 5.15625 4.88875C5.15625 4.63 5.36625 4.42 5.625 4.42H6.5625C6.82125 4.42 7.03125 4.63 7.03125 4.88875C7.03125 5.1475 6.82125 5.3575 6.5625 5.3575ZM6.5625 3.4825H5.625C5.36625 3.4825 5.15625 3.2725 5.15625 3.01375C5.15625 2.755 5.36625 2.545 5.625 2.545H6.5625C6.82125 2.545 7.03125 2.755 7.03125 3.01375C7.03125 3.2725 6.82125 3.4825 6.5625 3.4825Z" fill="#2EC9D4"/>
<path id="Vector_2" d="M14.1375 6.66503L9.6875 5.73315V14.8888H13.9063C14.5094 14.8888 15 14.3982 15 13.795V7.73378C15 7.21753 14.6481 6.77815 14.1375 6.66503ZM12.6563 13.0138H11.7188C11.46 13.0138 11.25 12.8038 11.25 12.545C11.25 12.2863 11.46 12.0763 11.7188 12.0763H12.6563C12.915 12.0763 13.125 12.2863 13.125 12.545C13.125 12.8038 12.915 13.0138 12.6563 13.0138ZM12.6563 11.1388H11.7188C11.46 11.1388 11.25 10.9288 11.25 10.67C11.25 10.4113 11.46 10.2013 11.7188 10.2013H12.6563C12.915 10.2013 13.125 10.4113 13.125 10.67C13.125 10.9288 12.915 11.1388 12.6563 11.1388ZM12.6563 9.26378H11.7188C11.46 9.26378 11.25 9.05378 11.25 8.79503C11.25 8.53628 11.46 8.32628 11.7188 8.32628H12.6563C12.915 8.32628 13.125 8.53628 13.125 8.79503C13.125 9.05378 12.915 9.26378 12.6563 9.26378Z" fill="#2EC9D4"/>
</g>
</svg>
