<svg width="48" height="48" viewBox="0 0 48 48" fill="none" xmlns="http://www.w3.org/2000/svg">
<g id="Group 49">
<circle id="Ellipse 3" cx="24.0137" cy="24.0046" r="21.9447" fill="#E9FBEF" stroke="#0ECD68" stroke-width="2.64394"/>
<path id="Union" fill-rule="evenodd" clip-rule="evenodd" d="M22.1163 30.0254C19.3765 30.0254 17.6407 27.762 17.6407 24.1543C17.6407 20.5466 19.3594 18.3002 22.1163 18.3002C24.8732 18.3002 26.5749 20.5466 26.5749 24.1543C26.5749 27.762 24.8562 30.0254 22.1163 30.0254ZM22.1163 28.3066C23.75 28.3066 24.72 26.792 24.72 24.1713C24.72 24.0576 24.7182 23.9459 24.7146 23.8363L19.9573 26.7813C20.397 27.7674 21.1368 28.3066 22.1163 28.3066ZM22.1163 20.036C23.2603 20.036 24.0789 20.7787 24.4668 22.1239L19.5494 25.1681C19.5138 24.8513 19.4956 24.513 19.4956 24.1543C19.4956 21.5506 20.4826 20.036 22.1163 20.036ZM32.7856 30.0254C30.0458 30.0254 28.31 27.762 28.31 24.1543C28.31 20.5466 30.0288 18.3002 32.7856 18.3002C35.5425 18.3002 37.2443 20.5466 37.2443 24.1543C37.2443 27.762 35.5255 30.0254 32.7856 30.0254ZM32.7856 28.3066C34.4193 28.3066 35.3894 26.792 35.3894 24.1713C35.3894 24.0002 35.3852 23.8337 35.377 23.6721L30.5542 26.6078C30.9825 27.7039 31.7502 28.3066 32.7856 28.3066ZM30.1987 24.967L35.0945 21.9869C34.6914 20.7284 33.8902 20.036 32.7856 20.036C31.152 20.036 30.1649 21.5506 30.1649 24.1543C30.1649 24.4382 30.1763 24.7093 30.1987 24.967ZM15.2451 18.5045H11.4331V20.1722H13.4412V29.8212H15.2451V18.5045Z" fill="#3FA441"/>
</g>
</svg>
