<svg width="20" height="20" viewBox="0 0 20 20" fill="none" xmlns="http://www.w3.org/2000/svg">
<path fill-rule="evenodd" clip-rule="evenodd" d="M14.6889 2.29772C13.8179 2.01264 12.6316 2.00004 10 2.00004C8.5885 2.00004 7.57994 2.00058 6.78514 2.05481C5.99931 2.10842 5.49574 2.21116 5.08658 2.38064C3.86144 2.88811 2.88807 3.86148 2.3806 5.08662C2.21112 5.49578 2.10839 5.99935 2.05477 6.78517C2.00054 7.57998 2 8.58854 2 10C2 11.4115 2.00054 12.4201 2.05477 13.2149C2.10839 14.0007 2.21112 14.5043 2.3806 14.9134C2.88807 16.1386 3.86144 17.1119 5.08658 17.6194C5.49574 17.7889 5.99931 17.8916 6.78514 17.9452C7.57994 17.9995 8.5885 18 10 18C11.4115 18 12.4201 17.9995 13.2149 17.9452C14.0007 17.8916 14.5043 17.7889 14.9134 17.6194C16.1386 17.1119 17.1119 16.1386 17.6194 14.9134C17.7889 14.5043 17.8916 14.0007 17.9452 13.2149C17.9995 12.4201 18 11.4115 18 10C18 9.23424 18 8.58384 17.9908 8.01614C17.9819 7.46393 18.4224 7.00906 18.9746 7.00017C19.5268 6.99127 19.9817 7.43172 19.9906 7.98393C20 8.56944 20 9.23534 20 9.99364V10.0368C20 11.4035 20 12.4801 19.9406 13.351C19.88 14.2387 19.7544 14.9853 19.4672 15.6788C18.7567 17.394 17.394 18.7567 15.6788 19.4672C14.9853 19.7544 14.2387 19.88 13.351 19.9406C12.4801 20 11.4035 20 10.0369 20H9.9631C8.5965 20 7.51986 20 6.649 19.9406C5.76134 19.88 5.01469 19.7544 4.32122 19.4672C2.60602 18.7567 1.2433 17.394 0.53284 15.6788C0.2456 14.9853 0.11997 14.2387 0.0594101 13.351C-9.90555e-06 12.4801 0 11.4035 0 10.0368V9.96324C0 8.59654 -9.90555e-06 7.51989 0.0594101 6.64903C0.11997 5.76138 0.2456 5.01472 0.53284 4.32125C1.2433 2.60606 2.60602 1.24334 4.32122 0.532881C5.01469 0.245631 5.76134 0.120011 6.64899 0.0594514C7.51986 3.14377e-05 8.5965 3.13425e-05 9.9632 4.13425e-05H10C10.0724 4.13425e-05 10.1441 3.13153e-05 10.215 2.13153e-05C12.5646 -0.000338685 14.0965 -0.000568718 15.3111 0.396951C15.8359 0.568741 16.1222 1.13351 15.9504 1.6584C15.7786 2.18328 15.2138 2.46952 14.6889 2.29772ZM19.8637 2.99606C20.142 3.47312 19.9809 4.08543 19.5038 4.36371L19.2822 4.49301C15.6873 6.59002 12.799 9.71094 10.9862 13.4571C10.8452 13.7484 10.572 13.9535 10.2529 14.0075C9.9338 14.0615 9.6083 13.9578 9.3793 13.729L5.36584 9.71984C4.97511 9.32954 4.97477 8.69644 5.36509 8.30564C5.7554 7.91493 6.38857 7.91459 6.7793 8.30494L9.8298 11.3522C11.8253 7.79616 14.7377 4.82851 18.2744 2.76545L18.4961 2.63616C18.9731 2.35788 19.5854 2.51901 19.8637 2.99606Z" fill="#2EC9D4"/>
</svg>
