<svg width="15" height="14" viewBox="0 0 15 14" fill="none" xmlns="http://www.w3.org/2000/svg">
<g id="check 1">
<g id="Group">
<path id="Vector" d="M6.31572 13.4327C6.31362 13.4327 6.31117 13.4327 6.30907 13.4327C6.22232 13.431 6.14047 13.3939 6.0817 13.3303L0.0839644 6.80851C-0.018878 6.69657 -0.0283226 6.52797 0.061577 6.40519C0.151477 6.28276 0.315185 6.24078 0.453007 6.30514L5.94248 8.8755C5.98865 8.89719 6.04322 8.8867 6.07855 8.84997L14.4522 0.098224C14.5655 -0.0203595 14.7509 -0.0333023 14.8796 0.0688405C15.0083 0.170983 15.0381 0.35428 14.9482 0.491753L6.61865 13.2519C6.60676 13.2704 6.59277 13.2872 6.57737 13.303L6.54065 13.3397C6.48083 13.3992 6.39967 13.4327 6.31572 13.4327Z" fill="white"/>
</g>
</g>
</svg>
