<svg width="18" height="18" viewBox="0 0 18 18" fill="none" xmlns="http://www.w3.org/2000/svg">
<g id="database 1">
<g id="Icon">
<path id="Vector" fill-rule="evenodd" clip-rule="evenodd" d="M18 1.46512C18 1.07665 17.846 0.704093 17.5705 0.429488C17.2959 0.154047 16.9233 0 16.5349 0C13.6767 0 4.32335 0 1.46512 0C1.07665 0 0.704093 0.154047 0.429488 0.429488C0.154047 0.704093 0 1.07665 0 1.46512V3.97674C0 4.36521 0.154047 4.73777 0.429488 5.01237C0.704093 5.28781 1.07665 5.44186 1.46512 5.44186H16.5349C16.9233 5.44186 17.2959 5.28781 17.5705 5.01237C17.846 4.73777 18 4.36521 18 3.97674V1.46512ZM3.55814 1.88372C4.02028 1.88372 4.39535 2.25879 4.39535 2.72093C4.39535 3.18307 4.02028 3.55814 3.55814 3.55814C3.096 3.55814 2.72093 3.18307 2.72093 2.72093C2.72093 2.25879 3.096 1.88372 3.55814 1.88372ZM6.48837 1.88372C6.95051 1.88372 7.32558 2.25879 7.32558 2.72093C7.32558 3.18307 6.95051 3.55814 6.48837 3.55814C6.02623 3.55814 5.65116 3.18307 5.65116 2.72093C5.65116 2.25879 6.02623 1.88372 6.48837 1.88372ZM15.2791 2.09302H12.7674C12.4208 2.09302 12.1395 2.37433 12.1395 2.72093C12.1395 3.06753 12.4208 3.34884 12.7674 3.34884H15.2791C15.6257 3.34884 15.907 3.06753 15.907 2.72093C15.907 2.37433 15.6257 2.09302 15.2791 2.09302Z" fill="white"/>
<path id="Vector_2" fill-rule="evenodd" clip-rule="evenodd" d="M18 7.74417C18 7.3557 17.846 6.98315 17.5705 6.70854C17.2959 6.4331 16.9233 6.27905 16.5349 6.27905C13.6767 6.27905 4.32335 6.27905 1.46512 6.27905C1.07665 6.27905 0.704093 6.4331 0.429488 6.70854C0.154047 6.98315 0 7.3557 0 7.74417V10.2558C0 10.6443 0.154047 11.0168 0.429488 11.2914C0.704093 11.5669 1.07665 11.7209 1.46512 11.7209H16.5349C16.9233 11.7209 17.2959 11.5669 17.5705 11.2914C17.846 11.0168 18 10.6443 18 10.2558V7.74417ZM3.55814 8.16277C4.02028 8.16277 4.39535 8.53784 4.39535 8.99998C4.39535 9.46212 4.02028 9.83719 3.55814 9.83719C3.096 9.83719 2.72093 9.46212 2.72093 8.99998C2.72093 8.53784 3.096 8.16277 3.55814 8.16277ZM6.48837 8.16277C6.95051 8.16277 7.32558 8.53784 7.32558 8.99998C7.32558 9.46212 6.95051 9.83719 6.48837 9.83719C6.02623 9.83719 5.65116 9.46212 5.65116 8.99998C5.65116 8.53784 6.02623 8.16277 6.48837 8.16277ZM15.2791 8.37208H12.7674C12.4208 8.37208 12.1395 8.65338 12.1395 8.99998C12.1395 9.34659 12.4208 9.62789 12.7674 9.62789H15.2791C15.6257 9.62789 15.907 9.34659 15.907 8.99998C15.907 8.65338 15.6257 8.37208 15.2791 8.37208Z" fill="white"/>
<path id="Vector_3" fill-rule="evenodd" clip-rule="evenodd" d="M18 14.0232C18 13.6348 17.846 13.2622 17.5705 12.9876C17.2959 12.7122 16.9233 12.5581 16.5349 12.5581C13.6767 12.5581 4.32335 12.5581 1.46512 12.5581C1.07665 12.5581 0.704093 12.7122 0.429488 12.9876C0.154047 13.2622 0 13.6348 0 14.0232V16.5348C0 16.9233 0.154047 17.2959 0.429488 17.5705C0.704093 17.8459 1.07665 18 1.46512 18H16.5349C16.9233 18 17.2959 17.8459 17.5705 17.5705C17.846 17.2959 18 16.9233 18 16.5348V14.0232ZM3.55814 14.4418C4.02028 14.4418 4.39535 14.8169 4.39535 15.279C4.39535 15.7412 4.02028 16.1162 3.55814 16.1162C3.096 16.1162 2.72093 15.7412 2.72093 15.279C2.72093 14.8169 3.096 14.4418 3.55814 14.4418ZM6.48837 14.4418C6.95051 14.4418 7.32558 14.8169 7.32558 15.279C7.32558 15.7412 6.95051 16.1162 6.48837 16.1162C6.02623 16.1162 5.65116 15.7412 5.65116 15.279C5.65116 14.8169 6.02623 14.4418 6.48837 14.4418ZM15.2791 14.6511H12.7674C12.4208 14.6511 12.1395 14.9324 12.1395 15.279C12.1395 15.6256 12.4208 15.9069 12.7674 15.9069H15.2791C15.6257 15.9069 15.907 15.6256 15.907 15.279C15.907 14.9324 15.6257 14.6511 15.2791 14.6511Z" fill="white"/>
</g>
</g>
</svg>
