<svg width="40" height="40" viewBox="0 0 40 40" fill="none" xmlns="http://www.w3.org/2000/svg">
<g id="data-recovery">
<g id="Page-1">
<g id="051---Data-Recovery">
<path id="Path" fill-rule="evenodd" clip-rule="evenodd" d="M0 4.54541V34.5454C0 37.0545 6.91818 39.0909 15.4545 39.0909C17.2429 39.0915 19.0301 39.0005 20.8091 38.8181L30.9091 13.509V4.54541H0Z" fill="#547580"/>
<path id="Oval" d="M15.4545 9.09091C23.9899 9.09091 30.9091 7.05584 30.9091 4.54545C30.9091 2.03507 23.9899 0 15.4545 0C6.91924 0 0 2.03507 0 4.54545C0 7.05584 6.91924 9.09091 15.4545 9.09091Z" fill="#95A5A5"/>
<path id="Path_2" fill-rule="evenodd" clip-rule="evenodd" d="M12.7273 26.3636C12.7287 27.2575 12.8139 28.1493 12.9818 29.0272C5.61818 28.6818 0 26.809 0 24.5454V14.5454C0 16.9909 6.59091 18.9909 14.8364 19.0818C13.4546 21.2588 12.7229 23.785 12.7273 26.3636Z" fill="#3F5C6C"/>
<path id="Path_3" fill-rule="evenodd" clip-rule="evenodd" d="M39.9998 26.3635C39.9973 33.8937 33.8935 39.9974 26.3634 39.9999C24.449 40.0045 22.5556 39.6016 20.8089 38.8181C16.7688 37.0137 13.8521 33.3653 12.9816 29.0272C12.8137 28.1492 12.7285 27.2574 12.7271 26.3635C12.7271 18.8324 18.8323 12.7272 26.3634 12.7272C33.8946 12.7272 39.9998 18.8324 39.9998 26.3635Z" fill="#46B29D"/>
<path id="Path_4" fill-rule="evenodd" clip-rule="evenodd" d="M37.0062 25.7209L34.279 22.9936C33.924 22.6387 33.3485 22.6387 32.9935 22.9936L30.2662 25.7209C29.9217 26.0776 29.9266 26.6446 30.2773 26.9953C30.628 27.3459 31.195 27.3509 31.5517 27.0063L32.7271 25.8309V26.3636C32.7271 29.8782 29.8781 32.7273 26.3635 32.7273C22.849 32.7273 19.9999 29.8782 19.9999 26.3636C19.9999 22.8491 22.849 20 26.3635 20C27.8102 19.9944 29.2147 20.4872 30.3408 21.3954C30.5934 21.6059 30.9401 21.6636 31.2472 21.5462C31.5544 21.4288 31.7742 21.1546 31.8221 20.8293C31.87 20.504 31.7384 20.1781 31.4781 19.9773C28.4973 17.5901 24.2616 17.5824 21.2722 19.9587C18.2828 22.335 17.3349 26.4633 18.9882 29.9057C20.6416 33.3481 24.4563 35.1889 28.1799 34.3411C31.9034 33.4933 34.5453 30.1824 34.5453 26.3636V25.8309L35.7208 27.0063C36.0775 27.3509 36.6445 27.3459 36.9952 26.9953C37.3458 26.6446 37.3508 26.0776 37.0062 25.7209Z" fill="white"/>
</g>
</g>
</g>
</svg>
