<svg width="40" height="40" viewBox="0 0 40 40" fill="none" xmlns="http://www.w3.org/2000/svg">
<g id="elementor-2">
<g id="Group">
<path id="Vector" d="M20.0048 5.90959e-07C8.95906 -0.00265566 0.00265684 8.94953 5.90959e-07 19.9952C-0.00265566 31.0409 8.94953 39.9973 19.9952 40C31.0409 40.0027 39.9973 31.0505 40 20.0048C40 20.0032 40 20.0016 40 20C40 8.95617 31.0486 0.00265684 20.0048 5.90959e-07Z" fill="#AB003A"/>
<g id="Group_2">
<path id="Vector_2" d="M11.6689 11.6644H15.0023V28.3311H11.6689V11.6644Z" fill="#FF7CE8"/>
<path id="Vector_3" d="M18.3354 24.9977H28.3354V28.331H18.3354V24.9977Z" fill="#FF7CE8"/>
<path id="Vector_4" d="M18.3354 18.3309H28.3354V21.6643H18.3354V18.3309Z" fill="#FF7CE8"/>
<path id="Vector_5" d="M18.3354 11.6644H28.3354V14.9978H18.3354V11.6644Z" fill="#FF7CE8"/>
</g>
</g>
</g>
</svg>
