<svg width="15" height="14" viewBox="0 0 15 14" fill="none" xmlns="http://www.w3.org/2000/svg">
<g id="Group 4">
<g id="Group 1">
<g id="domains">
<g id="Group">
<g id="Group_2">
<path id="Vector" d="M13.8783 5.3198C13.6612 5.21128 13.3972 5.29926 13.2887 5.51632L12.8028 6.48804L12.317 5.51635C12.1552 5.19271 11.6923 5.19344 11.5309 5.51635L11.045 6.48804L10.5592 5.51635C10.3769 5.15181 9.8136 5.20947 9.71341 5.60702C9.6155 5.21357 9.07693 5.15073 8.89415 5.51635L8.40829 6.48804L7.92246 5.51635C7.76063 5.19268 7.29779 5.19344 7.13634 5.51635L6.63788 6.51324L6.10075 5.50607C5.91135 5.15096 5.38345 5.21805 5.28692 5.60738C5.18666 5.20806 4.62278 5.15287 4.44103 5.51635L3.95517 6.48804L3.46934 5.51635C3.30645 5.1906 2.84329 5.19617 2.68321 5.51635L2.19735 6.48804L1.71152 5.51635C1.60298 5.29926 1.33902 5.21125 1.12193 5.31983C0.904835 5.42837 0.816857 5.69234 0.925402 5.90943L1.80431 7.66724C1.96614 7.99091 2.42898 7.99015 2.59043 7.66724L3.07626 6.69552L3.56209 7.66721C3.7587 8.06043 4.38715 7.9523 4.42773 7.50819C5.27906 5.80551 5.13176 6.09113 5.28718 5.81993C5.30652 5.89662 5.24279 5.76517 6.26271 7.67749C6.43078 7.99261 6.88474 7.98479 7.04353 7.66721L7.52939 6.69552L8.01522 7.66721C8.17699 7.99085 8.63991 7.99015 8.80134 7.66721C9.74877 5.77232 9.69604 5.88772 9.71309 5.82048C9.86839 6.09098 9.72114 5.80557 10.5725 7.50819C10.6133 7.95514 11.242 8.0595 11.4381 7.66718L11.9239 6.69552L12.4098 7.66721C12.5716 7.99085 13.0345 7.99012 13.1959 7.66721L14.0748 5.9094C14.1833 5.69231 14.0953 5.42834 13.8783 5.3198Z" fill="#2EC9D4"/>
</g>
</g>
<g id="Group_3">
<g id="Group_4">
<path id="Vector_2" d="M13.6816 3.51562H13.3605C12.2535 1.42005 10.0529 0 7.5293 0C5.05693 0 2.77594 1.37104 1.63975 3.51562H1.31836C0.591416 3.51562 0 4.10704 0 4.83398V8.34961C0 9.07655 0.591416 9.66797 1.31836 9.66797H1.63975C2.77594 11.8126 5.05693 13.1836 7.5293 13.1836C10.0537 13.1836 12.2539 11.7629 13.3605 9.66797H13.6816C14.4086 9.66797 15 9.07655 15 8.34961V4.83398C15 4.10704 14.4086 3.51562 13.6816 3.51562ZM12.3437 3.51562H11.0355C10.7873 2.72048 10.4453 2.02163 10.0303 1.46048C10.9651 1.91751 11.772 2.62503 12.3437 3.51562ZM7.96875 0.940459C8.8343 1.18277 9.62314 2.12807 10.1104 3.51562H7.96875V0.940459ZM7.08984 0.939404V3.51562H4.89135C5.38228 2.14228 6.20405 1.18245 7.08984 0.939404ZM4.98636 1.46326C4.56703 2.01776 4.21644 2.71213 3.96413 3.51562H2.65714C3.2301 2.62685 4.04244 1.92038 4.98636 1.46326ZM2.65714 9.66797H3.96413C4.21641 10.4715 4.567 11.1658 4.98636 11.7203C4.04244 11.2632 3.2301 10.5567 2.65714 9.66797ZM7.08984 12.2442C6.20405 12.0011 5.38228 11.0413 4.89135 9.66797H7.08984V12.2442ZM7.96875 12.2431V9.66797H10.1104C9.62314 11.0556 8.83433 12.0008 7.96875 12.2431ZM10.0303 11.7231C10.4453 11.162 10.7873 10.4631 11.0355 9.66797H12.3437C11.772 10.5586 10.9651 11.2661 10.0303 11.7231ZM14.1211 8.34961C14.1211 8.59192 13.924 8.78906 13.6816 8.78906H1.31836C1.07604 8.78906 0.878906 8.59192 0.878906 8.34961V4.83398C0.878906 4.59167 1.07604 4.39453 1.31836 4.39453C1.57251 4.39453 13.3209 4.39453 13.6816 4.39453C13.924 4.39453 14.1211 4.59167 14.1211 4.83398V8.34961Z" fill="#2EC9D4"/>
</g>
</g>
</g>
</g>
</g>
</svg>
