<svg width="15" height="15" viewBox="0 0 15 15" fill="none" xmlns="http://www.w3.org/2000/svg">
<g id="Group 3">
<g id="wordpress">
<g id="Group">
<path id="Vector" d="M4.49961 4.62927H3.67126L5.92957 11.013L7.19384 7.40013L6.21364 4.62927H5.33965V4.021H9.20992V4.62927H8.30361L10.5619 11.013L11.3736 8.69318C12.4385 5.72108 10.5009 4.79527 10.5009 4.13197C10.5009 3.46868 11.0386 2.931 11.7018 2.931C11.7377 2.931 11.7726 2.93294 11.8067 2.93612C10.6829 1.87521 9.16747 1.22461 7.49999 1.22461C5.32116 1.22461 3.40194 2.33522 2.27686 4.021H4.49954V4.62927H4.49961Z" fill="#2EC9D4"/>
<path id="Vector_2" d="M1.22461 7.5C1.22461 9.90255 2.57499 11.9894 4.55794 13.0439L1.72597 5.03857C1.40337 5.79435 1.22461 6.62628 1.22461 7.5Z" fill="#2EC9D4"/>
<path id="Vector_3" d="M12.9615 4.40771C13.0513 4.93625 13.0241 5.53028 12.8864 6.12663H12.9113L12.8164 6.39777C12.7602 6.59355 12.6894 6.79381 12.609 6.9906L10.4497 13.0399C12.4285 11.9841 13.7754 9.8995 13.7754 7.5C13.7754 6.37562 13.4794 5.32047 12.9615 4.40771Z" fill="#2EC9D4"/>
<path id="Vector_4" d="M5.56445 13.4707C6.1741 13.6682 6.8244 13.7753 7.49986 13.7753C8.14412 13.7753 8.76563 13.6781 9.35072 13.4977L7.5151 8.30884L5.56445 13.4707Z" fill="#2EC9D4"/>
<path id="Vector_5" d="M12.8033 2.19669C11.3867 0.780132 9.50329 0 7.49997 0C5.49664 0 3.61324 0.780132 2.19669 2.19669C0.780132 3.61324 0 5.49664 0 7.5C0 9.50332 0.780132 11.3867 2.19669 12.8033C3.61324 14.2198 5.49668 15 7.5 15C9.50332 15 11.3867 14.2198 12.8033 12.8033C14.2199 11.3867 15 9.50329 15 7.5C15 5.49664 14.2198 3.61324 12.8033 2.19669ZM7.49997 14.4709C3.6562 14.4709 0.529068 11.3438 0.529068 7.5C0.529068 3.65623 3.6562 0.529068 7.49997 0.529068C11.3437 0.529068 14.4709 3.65623 14.4709 7.5C14.4709 11.3438 11.3438 14.4709 7.49997 14.4709Z" fill="#2EC9D4"/>
</g>
</g>
</g>
</svg>
