<svg width="12" height="13" viewBox="0 0 12 13" fill="none" xmlns="http://www.w3.org/2000/svg">
<g id="Layer 2">
<path id="Vector" d="M5.60181 6.08449C7.282 6.08449 8.64406 4.72243 8.64406 3.04224C8.64406 1.36206 7.282 0 5.60181 0C3.92163 0 2.55957 1.36206 2.55957 3.04224C2.55957 4.72243 3.92163 6.08449 5.60181 6.08449Z" fill="black"/>
<path id="Vector_2" d="M11.0266 9.65182L10.9433 9.44686C10.6635 8.74388 10.1824 8.13914 9.56033 7.70846C8.93824 7.27778 8.20285 7.04033 7.44636 7.02588H3.76364C3.00716 7.04033 2.27177 7.27778 1.64968 7.70846C1.02759 8.13914 0.546478 8.74388 0.266665 9.44686L0.176999 9.64541C0.0373258 9.96598 -0.0211353 10.316 0.006794 10.6646C0.0347233 11.0132 0.148181 11.3494 0.337117 11.6437C0.490966 11.8949 0.706453 12.1027 0.963138 12.2473C1.21982 12.3919 1.50919 12.4685 1.8038 12.4699H9.3934C9.68885 12.4684 9.97907 12.3918 10.2368 12.2472C10.4945 12.1027 10.7112 11.895 10.8665 11.6437C11.0538 11.35 11.1663 11.0149 11.1943 10.6677C11.2222 10.3204 11.1646 9.97166 11.0266 9.65182Z" fill="black"/>
</g>
</svg>
