<svg width="19" height="19" viewBox="0 0 19 19" fill="none" xmlns="http://www.w3.org/2000/svg">
<g id="lighting 1">
<g id="Group">
<path id="Vector" d="M9.5 0C4.2534 0 0 4.2534 0 9.5C0 14.7466 4.2534 19 9.5 19C14.7466 19 19 14.7466 19 9.5C19 4.2534 14.7466 0 9.5 0ZM15.4064 15.4064C13.8287 16.9842 11.7311 17.8531 9.5 17.8531C7.26895 17.8531 5.1713 16.9842 3.59356 15.4064C2.01582 13.8287 1.14687 11.7311 1.14687 9.5C1.14687 7.26895 2.01582 5.1713 3.59356 3.59356C5.1713 2.01582 7.26895 1.14687 9.5 1.14687C11.7311 1.14687 13.8287 2.01582 15.4064 3.59356C16.9842 5.1713 17.8531 7.26895 17.8531 9.5C17.8531 11.7311 16.9842 13.8287 15.4064 15.4064Z" fill="#FFE177"/>
<g id="Group_2">
<path id="Vector_2" d="M8.92655 1.1666C8.73655 1.1538 8.54536 1.1469 8.3531 1.1469C6.12204 1.1469 4.0244 2.01585 2.44666 3.59359C0.919236 5.12101 0.0561465 7.13572 0.00267187 9.28702C0.00115039 9.35783 0 9.42878 0 9.49999C0 9.57121 0.00115039 9.64216 0.00270898 9.713C0.0561836 11.8643 0.919273 13.879 2.4467 15.4064C4.02444 16.9842 6.12208 17.8531 8.35313 17.8531C8.5454 17.8531 8.73655 17.8462 8.92659 17.8334C6.9114 17.6977 5.03537 16.8482 3.5936 15.4065C2.01582 13.8287 1.14687 11.731 1.14687 9.49999C1.14687 7.26894 2.01582 5.1713 3.59356 3.59355C5.03533 2.15178 6.91136 1.30235 8.92655 1.1666Z" fill="#FCAE39"/>
<path id="Vector_3" d="M9.50021 0C9.30761 0 9.11654 0.00641992 8.92676 0.0177383C13.8361 0.31016 17.7415 4.3304 17.8506 9.28703C17.8524 9.35787 17.8533 9.4289 17.8533 9.50004C17.8533 9.57118 17.8524 9.64217 17.8506 9.71305C17.7415 14.6697 13.8361 18.6899 8.92676 18.9823C9.11654 18.9936 9.30761 19 9.50021 19C14.7468 19 19.0002 14.7466 19.0002 9.5C19.0002 4.2534 14.7468 0 9.50021 0Z" fill="#FCAE39"/>
</g>
<path id="Vector_4" d="M11.2328 3.09815L5.70224 8.80186C5.66657 8.83864 5.67648 8.89942 5.72198 8.92299L8.40577 10.312C8.43775 10.3286 8.45386 10.3652 8.4444 10.4L6.96674 15.8285C6.94622 15.9039 7.03862 15.9579 7.09421 15.903L13.2965 9.78448C13.333 9.74852 13.3244 9.68755 13.2795 9.66299L10.4358 8.1077C10.4064 8.09166 10.3909 8.05849 10.3975 8.02572L11.3626 3.16632C11.3775 3.09151 11.2858 3.04345 11.2328 3.09815Z" fill="#FFE177"/>
<path id="Vector_5" d="M13.2795 9.66296L10.4358 8.10767C10.4065 8.09164 10.391 8.05846 10.3975 8.02569L11.3627 3.16629C11.3775 3.09156 11.2858 3.04346 11.2328 3.09816L10.6143 3.73604L9.05987 8.30609C9.05337 8.33886 9.06889 8.37204 9.09817 8.38807L11.6542 9.83136C11.6992 9.85593 11.7077 9.9169 11.6712 9.9529L7.10198 15.3318L6.96679 15.8285C6.94627 15.9038 7.03863 15.9578 7.09426 15.903L13.2965 9.78446C13.333 9.7485 13.3244 9.68756 13.2795 9.66296Z" fill="#FCAE39"/>
</g>
</g>
</svg>
