<svg width="46" height="57" viewBox="0 0 46 57" fill="none" xmlns="http://www.w3.org/2000/svg">
<g id="litespeed-logo 1">
<g id="Group">
<g id="Group_2">
<path id="Vector" d="M44.5988 27.5125L31.8004 14.7139C31.747 14.6599 31.675 14.6305 31.6004 14.6305C31.5946 14.6305 31.5892 14.6305 31.5842 14.6305C31.5034 14.6351 31.4282 14.6743 31.3778 14.7381L25.9232 21.6595C25.8332 21.7725 25.8436 21.9331 25.9452 22.0351L31.8226 27.9115C32.033 28.1235 32.149 28.4035 32.149 28.7045C32.1476 29.0003 32.031 29.2775 31.8228 29.4845L30.125 31.1833C30.0296 31.2791 30.0148 31.4291 30.0886 31.5403C30.5128 32.1731 31.2044 33.2179 31.2702 33.3325C31.483 33.7587 31.5536 34.8455 30.9268 35.3225L17.5562 45.5925C17.487 45.6455 17.4462 45.7283 17.4462 45.8161C17.4462 46.9563 17.4446 56.1067 17.4456 56.1997C17.4456 56.3971 17.4456 56.5149 17.602 56.5947C17.6414 56.6147 17.6844 56.6239 17.7294 56.6239C17.8462 56.6239 17.893 56.5787 18.0056 56.4665L18.2284 56.2407C18.4242 56.0473 44.5976 29.8859 44.5976 29.8859C45.2464 29.2293 45.2444 28.1657 44.5988 27.5125Z" fill="#5E8CDA"/>
<path id="Vector_2" d="M27.592 0.126688L27.5876 0.120888C27.5842 0.117688 27.5816 0.113488 27.5796 0.110888L27.5722 0.101488C27.5214 0.0404883 27.4468 0.00388828 27.3672 0.000488281C27.3624 0.000488281 27.3588 0.000488281 27.3544 0.000488281C27.2794 0.000488281 27.2066 0.0290884 27.1536 0.0832884L0.4914 26.7487C0.1742 27.0615 0 27.4839 0 27.9353C0 28.3857 0.1754 28.8057 0.4934 29.1181L13.2874 41.9139C13.3404 41.9681 13.4128 41.9971 13.4874 41.9971C13.493 41.9971 13.4986 41.9971 13.5042 41.9971C13.5848 41.9925 13.6598 41.9537 13.7092 41.8887L19.168 34.9673C19.2572 34.8549 19.2468 34.6953 19.1458 34.5919L13.2624 28.7153C13.054 28.5085 12.9412 28.2315 12.9402 27.9353C12.9392 27.6361 13.054 27.3571 13.2624 27.1493L14.965 25.4443C15.0616 25.3467 15.0756 25.1943 14.996 25.0821L13.8352 23.4125C13.3662 22.7473 13.5118 21.8025 14.1594 21.3057L27.5344 11.0441C27.6044 10.9905 27.6458 10.9083 27.6458 10.8191L27.6484 0.297288C27.6486 0.235888 27.6292 0.175888 27.592 0.126688Z" fill="#093071"/>
</g>
<path id="Vector_3" d="M29.9474 33.1621L15.1372 23.5421L21.6788 32.9461C21.8188 33.1621 21.805 33.5299 21.6496 33.7371L9.93218 48.6079C9.72558 48.8775 9.55238 49.1695 9.69918 49.4707C9.77738 49.6281 9.96918 49.7549 10.1548 49.7677C10.3862 49.7665 10.5636 49.6661 10.807 49.4801L29.6376 35.0243C30.2136 34.5847 30.198 33.5195 29.9474 33.1621Z" fill="#F5CD21"/>
<path id="Vector_4" d="M35.3846 7.15889C35.295 6.97669 35.099 6.85469 34.8944 6.85469C34.711 6.85469 34.5398 6.93369 34.2766 7.13469L15.438 21.6017C14.841 22.0583 14.7058 22.9291 15.1372 23.5421L29.9474 33.1621C29.7324 32.8473 23.467 23.7647 23.4036 23.6727C23.2616 23.4719 23.2738 23.0807 23.4286 22.8843L35.1458 8.00869L35.1536 7.99829C35.3444 7.75449 35.5348 7.46789 35.3846 7.15889Z" fill="#FDDD75"/>
</g>
</g>
</svg>
