<svg width="234" height="35" viewBox="0 0 234 35" fill="none" xmlns="http://www.w3.org/2000/svg">
<g id="logo-nuvem-1 1">
<g id="Group_101">
<g id="Group_3">
<g id="Group_1">
<path id="Path_1" d="M63.8748 15.1239C65.4067 15.1239 67.1743 15.9488 67.1743 18.9537V24.1975H66.3494V19.0715C66.3494 16.8326 65.2889 15.8309 63.6981 15.8309C62.1073 15.8309 60.8699 16.9504 60.7521 19.1893V24.1975H59.9272V15.3596H60.6343L60.7521 17.5985V17.6574C61.0467 16.1255 62.4018 15.065 63.8748 15.1239Z" fill="#5B6375"/>
<path id="Path_2" d="M73.7733 24.4332C71.8879 24.551 70.297 23.1369 70.1792 21.2515V15.3596H71.0041V20.6034C71.0041 22.5477 72.0057 23.7261 73.7733 23.7261C75.5408 23.7261 76.5425 22.5477 76.5425 20.6034V15.3596H77.3673V20.6034C77.603 22.4888 76.3068 24.1386 74.4214 24.4332H73.7733Z" fill="#5B6375"/>
<path id="Path_3" d="M87.2654 15.3596L83.4357 24.1975H82.7287L78.8989 15.3596H79.7827L83.0822 23.2548L86.3816 15.3596H87.2654Z" fill="#5B6375"/>
<path id="Path_4" d="M89.21 19.6608C89.0921 21.723 90.624 23.5495 92.7451 23.6673C93.8646 23.7262 94.984 23.3138 95.75 22.43L96.3392 22.9014C95.4554 23.8441 94.1592 24.3744 92.863 24.3744C90.3884 24.4333 88.3851 22.489 88.3262 20.0144V19.6019C88.2084 17.2452 90.0348 15.183 92.4505 15.0652H92.6273C94.8662 15.0062 96.6927 16.7738 96.7516 18.9538V19.6019L89.21 19.6608ZM92.6273 15.8311C90.8008 15.8311 89.3278 17.2452 89.21 19.0716H95.9268C95.9268 17.3041 94.5127 15.8311 92.6862 15.8311H92.6273Z" fill="#5B6375"/>
<path id="Path_5" d="M108.594 15.1239C110.067 15.1239 111.658 15.9488 111.658 18.9537V24.1975H110.833V18.9537C110.833 17.0683 110.067 15.7721 108.417 15.7721C106.944 15.7721 106.002 16.9504 105.884 19.0715V24.1386H105.059V18.7769C105.059 17.0094 104.175 15.7131 102.584 15.7131C101.17 15.7131 100.169 16.9504 100.051 18.8358V24.0796H99.2261V15.2418H99.9331L100.051 17.0094C100.404 15.831 101.524 15.0061 102.761 15.0061C104.116 15.0061 105.295 15.8899 105.648 17.245C105.943 15.9488 107.18 15.065 108.594 15.1239Z" fill="#5B6375"/>
</g>
<g id="Group_2">
<path id="Path_6" d="M126.782 11.2759V24.2381H123.836V18.8175H118.886V24.2381H115.94V11.2759H118.886V16.4018H123.836V11.2759H126.782Z" fill="#2EC9D4"/>
<path id="Path_7" d="M128.903 19.5247C128.785 16.6377 130.965 14.222 133.852 14.1042C136.739 13.9863 139.154 16.1663 139.272 19.0534C139.39 21.9404 137.21 24.3561 134.323 24.4739H134.087C131.377 24.6507 129.079 22.5885 128.903 19.8782V19.5247ZM136.444 19.5247C136.326 18.2285 135.148 17.2858 133.852 17.4036C132.555 17.5215 131.613 18.6999 131.731 19.9961C131.848 21.1745 132.85 22.1172 134.087 22.1172C135.443 22.1172 136.503 20.9977 136.444 19.6426V19.5247Z" fill="#2EC9D4"/>
<path id="Path_8" d="M141.747 21.3511C142.336 21.9992 143.22 22.4116 144.103 22.4116C144.987 22.4116 145.459 22.0581 145.459 21.4689C145.459 19.937 140.804 20.8797 140.804 17.6392C140.804 15.8716 142.277 14.5754 144.811 14.5754C146.048 14.5165 147.344 14.9289 148.287 15.6948L146.873 17.4035C146.342 16.9321 145.694 16.6375 144.928 16.6375C144.103 16.6375 143.691 16.9911 143.691 17.5802C143.691 19.3478 148.464 18.2873 148.464 21.5278C148.464 23.2365 147.049 24.4738 144.457 24.4738C142.925 24.5916 141.334 24.0613 140.215 23.0008L141.747 21.3511Z" fill="#2EC9D4"/>
<path id="Path_9" d="M155.946 14.5754C158.362 14.5754 160.306 16.4019 160.306 19.5246C160.306 22.6473 158.421 24.4738 155.946 24.4738C154.886 24.5328 153.825 24.1203 153.118 23.3544V28.4214H150.349V14.87H152.765L152.942 15.8717C153.708 15.0468 154.827 14.5754 155.946 14.5754ZM157.478 19.5246C157.302 18.2284 156.123 17.3446 154.886 17.5214C153.59 17.6981 152.706 18.8765 152.883 20.1138C153.059 21.2922 154.061 22.176 155.239 22.1171C156.536 22.0582 157.596 20.9976 157.537 19.6425C157.478 19.6425 157.478 19.5836 157.478 19.5246Z" fill="#2EC9D4"/>
<path id="Path_10" d="M171.265 20.2318H164.254C164.313 21.528 165.373 22.5296 166.67 22.4707C167.436 22.5296 168.202 22.1761 168.791 21.5869L170.617 23.1188C169.557 24.1204 168.202 24.5918 166.729 24.5329C164.018 24.7686 161.603 22.8242 161.367 20.114V19.5837C161.308 16.9323 163.429 14.6934 166.08 14.6345H166.434C168.967 14.5166 171.147 16.461 171.324 18.9945V19.5837L171.265 20.2318ZM166.434 16.6377C165.314 16.6377 164.372 17.5804 164.313 18.6999H168.555C168.555 17.5215 167.612 16.5788 166.434 16.6377Z" fill="#2EC9D4"/>
<path id="Path_11" d="M182.283 10.4512V24.2382H179.985L179.691 23.1777C178.925 24.0615 177.805 24.5917 176.627 24.5328C174.211 24.5328 172.267 22.7063 172.267 19.5836C172.267 16.4609 174.153 14.6344 176.627 14.6344C177.688 14.6344 178.748 15.0469 179.455 15.7539V10.4512H182.283ZM179.75 19.5247C179.573 18.2285 178.395 17.3447 177.157 17.5215C175.861 17.6982 174.977 18.8766 175.154 20.1139C175.331 21.2923 176.274 22.1171 177.452 22.1171C178.748 22.1171 179.809 20.9977 179.809 19.6425C179.75 19.6425 179.75 19.5836 179.75 19.5247Z" fill="#2EC9D4"/>
<path id="Path_12" d="M194.008 14.8703V24.2384H191.71L191.415 23.1778C190.65 24.0616 189.53 24.533 188.352 24.533C185.936 24.533 183.992 22.7065 183.992 19.5838C183.992 16.4611 185.877 14.6346 188.352 14.6346C189.53 14.5757 190.65 15.1059 191.415 15.9897L191.71 14.8703H194.008ZM191.533 19.5249C191.357 18.2286 190.178 17.3449 188.941 17.5216C187.645 17.6984 186.761 18.8767 186.938 20.114C187.114 21.2924 188.057 22.1173 189.235 22.1173C190.532 22.0584 191.592 20.9978 191.592 19.6427C191.533 19.6427 191.533 19.5838 191.533 19.5249Z" fill="#2EC9D4"/>
<path id="Path_13" d="M205.792 14.8112V23.2955C205.792 26.7128 204.024 28.4215 200.843 28.4215C200.077 28.4215 199.252 28.3036 198.545 28.068L199.134 25.829C199.605 26.0647 200.195 26.1236 200.725 26.1236C202.551 26.1236 203.023 24.9452 203.082 23.1188C202.316 23.8847 201.314 24.2382 200.254 24.2382C197.838 24.2382 195.894 22.4117 195.894 19.4069C195.894 16.402 197.779 14.5755 200.254 14.5755C201.432 14.5166 202.551 15.0468 203.317 15.9306L203.612 14.8701L205.792 14.8112ZM203.317 19.4658C203.2 18.1696 202.021 17.2858 200.725 17.4036C199.429 17.5214 198.545 18.6998 198.663 19.996C198.781 21.1744 199.782 22.0582 200.961 22.0582C202.257 22.0582 203.317 20.9387 203.317 19.6425V19.4658Z" fill="#2EC9D4"/>
<path id="Path_14" d="M217.517 20.2318H210.505C210.564 21.528 211.625 22.5296 212.921 22.4707C213.687 22.5296 214.453 22.1761 215.042 21.5869L216.869 23.1188C215.808 24.1204 214.453 24.5918 212.98 24.5329C210.27 24.7686 207.854 22.8242 207.618 20.114V19.5837C207.559 16.9323 209.681 14.6934 212.332 14.6345H212.685C215.219 14.5166 217.399 16.461 217.576 18.9945V19.5837L217.517 20.2318ZM212.627 16.6377C211.507 16.6377 210.564 17.5804 210.505 18.6999H214.748C214.806 17.5215 213.864 16.5788 212.627 16.6377C212.685 16.6377 212.685 16.6377 212.627 16.6377Z" fill="#2EC9D4"/>
<path id="Path_15" d="M230.184 14.5755C232.364 14.5755 233.601 15.9306 233.601 18.6409V24.1793H230.832V18.9944C230.832 17.7571 230.42 16.9323 229.418 16.9323C228.299 16.9323 227.827 17.816 227.827 19.3479V24.1793H225.058V18.9944C225.058 17.7571 224.646 16.9323 223.644 16.9323C222.643 16.9323 222.112 17.6393 222.053 18.9944V24.1793H219.284V14.8701H221.7L221.994 15.9896C222.525 15.1058 223.467 14.5755 224.528 14.5755C225.589 14.5166 226.59 15.0468 227.179 15.9306C227.886 15.0468 229.065 14.5166 230.184 14.5755Z" fill="#2EC9D4"/>
</g>
</g>
<path id="Path_16" d="M31.3449 23.2677H6.65785C3.00487 23.2677 0 20.3217 0 16.6098C0 12.9568 2.94595 9.95198 6.65785 9.95198C6.95244 9.95198 7.24704 9.95197 7.48272 10.0109C8.3665 3.64763 14.2584 -0.771287 20.6217 0.112498C24.1568 0.58385 27.2795 2.70494 29.106 5.82765C33.8195 4.59035 38.7098 7.35954 39.9471 12.132C41.1844 16.8455 38.4152 21.7358 33.6428 22.9731C32.8768 23.1498 32.1109 23.2677 31.3449 23.2677ZM6.65785 10.659C3.4173 10.659 0.765945 13.3104 0.765945 16.5509C0.765945 19.7915 3.4173 22.4428 6.65785 22.4428H31.3449C35.8228 22.4428 39.4757 18.7898 39.4757 14.312C39.4757 9.83414 35.8228 6.18115 31.3449 6.18115C30.5201 6.18115 29.7541 6.29899 28.9292 6.53467L28.6346 6.59359L28.5168 6.35792C25.6298 1.05521 19.0308 -0.889118 13.7281 1.99791C10.6054 3.70657 8.48434 6.88819 8.13082 10.4233L8.07191 10.8358L7.65947 10.7768C7.36488 10.7179 7.01136 10.7179 6.65785 10.659Z" fill="#5B6375"/>
<path id="Path_17" d="M21.6823 17.5525C22.5071 17.5525 23.332 17.6704 24.1569 17.906C27.1028 12.4266 33.9374 10.4233 39.4169 13.3693C42.6574 15.1368 44.8375 18.3774 45.2499 22.0893C48.6672 21.4412 51.9077 23.6801 52.5559 27.0974C53.204 30.5147 50.965 33.7553 47.5477 34.4034C47.1942 34.4623 46.7818 34.5212 46.3694 34.5212H21.6823C16.9688 34.5212 13.1979 30.6915 13.1979 26.0369C13.139 21.3233 16.9688 17.5525 21.6823 17.5525Z" fill="#2EC9D4"/>
</g>
</g>
</svg>
