<svg width="15" height="10" viewBox="0 0 15 10" fill="none" xmlns="http://www.w3.org/2000/svg">
<g id="partner 1">
<path id="Vector" d="M6.83679 7.73246L6.25366 8.56119V8.56146L6.18603 8.65793C6.09994 8.78074 5.97884 8.85755 5.82544 8.84213C5.74726 8.83429 5.66549 8.8014 5.60126 8.75615C5.53703 8.71089 5.47868 8.64532 5.44487 8.57444C5.38201 8.44252 5.40729 8.30864 5.48393 8.19066V8.18963L6.37863 6.91796L6.37907 6.91751C6.4651 6.79775 6.5851 6.723 6.73641 6.73811C6.81456 6.74592 6.89602 6.77873 6.96025 6.82399C7.02452 6.86928 7.08293 6.93495 7.11667 7.0059C7.18279 7.14484 7.15141 7.28523 7.06529 7.40767L6.83679 7.73246ZM6.09717 6.59381C6.18316 6.47138 6.2145 6.33102 6.14845 6.19211C6.11474 6.12123 6.05633 6.05542 5.9921 6.01027C5.9278 5.96509 5.8463 5.9323 5.76813 5.92449C5.61479 5.90918 5.49366 5.98598 5.40743 6.10862L5.17667 6.43678H5.14467V6.48176L4.52698 7.36005L4.34041 7.62544C4.25401 7.74836 4.22442 7.88635 4.28896 8.02564C4.3561 8.17055 4.51187 8.28021 4.67096 8.29435C4.82378 8.30795 4.94358 8.23358 5.02998 8.1108L5.15505 7.93308L6.03503 6.68223L6.09717 6.59381ZM3.84258 0.744449L2.63062 0.0446373C2.58006 0.0154499 2.52285 3.42387e-05 2.46447 3.42387e-05C2.43456 3.42387e-05 2.4051 0.00400796 2.37622 0.0117159C2.28959 0.0348054 2.21669 0.0899259 2.17181 0.167588L0.0447281 3.85164C-0.0476986 4.01176 0.0078329 4.21799 0.16785 4.31041L1.37981 5.01023C1.4572 5.05493 1.54843 5.06634 1.63469 5.04311C1.72088 5.01989 1.79392 4.96463 1.83862 4.88728L3.9657 1.20323C4.05827 1.04287 4.00287 0.837013 3.84258 0.744449ZM4.82831 6.23404V6.20718C4.90484 6.08917 4.92988 5.95536 4.86691 5.82357C4.8331 5.75279 4.77466 5.68712 4.71043 5.642C4.64616 5.59685 4.56463 5.56414 4.48652 5.55636C4.33325 5.54108 4.21212 5.61778 4.12593 5.74036L3.49658 6.63523C3.41049 6.75767 3.37904 6.89799 3.44519 7.03693C3.47904 7.10798 3.53724 7.17328 3.60151 7.21867C3.6655 7.26392 3.74738 7.29671 3.82525 7.30452C3.97639 7.31969 4.09636 7.24536 4.18242 7.12573L4.18286 7.12528L4.80388 6.2425L4.82831 6.23404ZM14.9552 3.85164L12.8281 0.167588C12.7833 0.0899944 12.7103 0.0349082 12.6238 0.0117159C12.5951 0.00400796 12.5653 0 12.5355 0C12.4769 0 12.4201 0.0153129 12.3693 0.0446031L11.1572 0.744415C11.0797 0.789156 11.0245 0.861987 11.0012 0.94835C10.978 1.03458 10.9896 1.12584 11.0342 1.20319L13.1611 4.88724C13.2059 4.96483 13.2789 5.01995 13.3653 5.04311C13.4515 5.0662 13.5426 5.05483 13.6199 5.01023L14.832 4.31055C14.9923 4.21812 15.0477 4.01183 14.9552 3.85164ZM7.16844 7.99902L7.15326 8.00645L6.60685 8.78389L6.60497 8.80054C6.58417 8.98314 6.71089 9.14976 6.87077 9.2239C7.06789 9.3153 7.25288 9.25863 7.37802 9.0807L7.69367 8.63196C7.81888 8.45396 7.80932 8.26133 7.65684 8.10676C7.53263 7.98093 7.33417 7.91783 7.16844 7.99902ZM10.7492 1.64182C10.2379 1.78608 9.71349 1.84761 9.18278 1.8312C8.77388 1.81856 8.37543 1.7597 7.9765 1.67187C7.68175 1.60702 7.3672 1.55967 7.07104 1.64244C6.8446 1.70571 6.65125 1.83702 6.4714 1.98457C6.3541 2.0808 6.24198 2.18433 6.13204 2.28878C5.9931 2.42084 5.85668 2.55575 5.7201 2.69024C5.61383 2.7949 5.5075 2.89945 5.40068 3.00356L5.38211 3.02165L5.31329 4.46694C5.31017 4.53251 5.31442 4.64566 5.37742 4.68543C5.43161 4.71962 5.52089 4.71164 5.58081 4.70061C5.69492 4.67961 5.81054 4.63 5.91211 4.57512C6.13513 4.45467 6.31995 4.03098 6.42495 3.80662C6.4752 3.6993 6.52539 3.59145 6.58095 3.48673C6.60233 3.44644 6.63649 3.41431 6.67787 3.39523C6.72778 3.3722 6.77749 3.34867 6.82716 3.3251C7.0768 3.20667 7.33948 3.08136 7.61481 3.03813C7.87688 2.99698 8.11689 3.03775 8.34741 3.17118L11.6389 5.07665L12.5276 4.62288L10.7984 1.62798L10.7492 1.64182ZM11.5276 5.49343L8.13885 3.53171C8.0641 3.48844 7.98455 3.45922 7.89891 3.44685C7.75904 3.42664 7.61844 3.45418 7.48552 3.49742C7.32222 3.55051 7.1609 3.6277 7.00588 3.70135C6.98324 3.71207 6.96063 3.72283 6.93795 3.73348L6.91716 3.74325L6.90695 3.7638C6.87091 3.83639 6.83645 3.90981 6.80212 3.98319C6.64594 4.31685 6.44567 4.76066 6.11005 4.94185C5.83657 5.0895 5.44463 5.21992 5.15574 5.03815C5.084 4.99303 5.02494 4.93013 4.9826 4.85686C4.91104 4.73308 4.89072 4.58824 4.89744 4.4472L4.97 2.91977C4.9725 2.86691 4.99483 2.81675 5.03289 2.77993C5.16516 2.65184 5.2965 2.52282 5.42761 2.39357C5.48221 2.33972 5.53699 2.28607 5.59167 2.23225L5.66635 2.1587L4.19773 1.63412L2.43402 4.68951L3.45681 5.96735L3.78513 5.50076C3.98437 5.21759 4.29149 5.08056 4.63297 5.15921C4.68648 5.17151 4.73879 5.18891 4.78908 5.21084C4.84561 5.23547 4.89966 5.26586 4.95009 5.30131C5.06143 5.37956 5.15574 5.48312 5.22134 5.6025L5.25522 5.66417L5.31445 5.62618C5.6003 5.44293 5.96127 5.47931 6.23184 5.66972C6.42741 5.80733 6.56951 6.02188 6.59702 6.26189L6.60397 6.32256L6.66499 6.32013C6.85508 6.31252 7.04497 6.37443 7.19992 6.4835C7.52321 6.71114 7.66592 7.11072 7.49943 7.48389L7.46788 7.5546L7.54277 7.5743C7.69912 7.61544 7.84019 7.69958 7.95351 7.81454C8.215 8.0798 8.27177 8.44248 8.09524 8.77136L8.06519 8.82733L8.84671 9.28234C8.97617 9.35771 9.11827 9.37703 9.25119 9.29923C9.31891 9.25959 9.37941 9.19577 9.41891 9.12791C9.45841 9.06001 9.4841 8.97598 9.48527 8.89746C9.4875 8.74354 9.40096 8.62936 9.27164 8.55382L9.25626 8.54485H9.25588L8.35851 8.02252C8.25919 7.96473 8.226 7.83691 8.28369 7.73774C8.34148 7.63846 8.46881 7.60461 8.56813 7.66244L9.47931 8.19292C9.48061 8.19374 9.48195 8.19453 9.48332 8.19525L9.76676 8.3602C9.89629 8.4356 10.0385 8.45489 10.1715 8.37705C10.2391 8.33748 10.2998 8.27353 10.3392 8.20566C10.3786 8.13763 10.4043 8.05387 10.4054 7.97528C10.4075 7.82427 10.3241 7.7116 10.1989 7.6361L10.1983 7.63558L9.07257 6.98C8.97339 6.92227 8.94003 6.79412 8.99772 6.69508C9.05554 6.59583 9.18298 6.5625 9.28219 6.62026L10.4164 7.28037H10.4167L10.7596 7.48043C10.8891 7.55597 11.0299 7.57347 11.1629 7.49742C11.3016 7.41808 11.3972 7.25337 11.3978 7.09363C11.3984 6.94012 11.314 6.82721 11.1842 6.75157L10.8945 6.58268L9.78684 5.93775C9.68759 5.87996 9.65368 5.75228 9.7115 5.65296C9.76933 5.55372 9.89715 5.51981 9.99646 5.57763L11.1041 6.2227C11.2336 6.29814 11.3756 6.31718 11.5084 6.23908C11.5762 6.19923 11.6362 6.13562 11.6759 6.06775C11.7156 5.99996 11.7414 5.91531 11.7424 5.83682C11.7445 5.68267 11.6575 5.56859 11.5276 5.49343Z" fill="#2EC9D4"/>
</g>
</svg>
