<svg width="62" height="62" viewBox="0 0 62 62" fill="none" xmlns="http://www.w3.org/2000/svg">
<g id="Group 108">
<rect id="Rectangle 153" width="62" height="62" rx="10" fill="#F5E8FF"/>
<g id="customer">
<g id="Group">
<path id="Vector" d="M31.0615 28.5576C33.7008 28.5576 35.8403 26.4181 35.8403 23.7788C35.8403 21.1395 33.7008 19 31.0615 19C28.4223 19 26.2827 21.1395 26.2827 23.7788C26.2827 26.4181 28.4223 28.5576 31.0615 28.5576Z" fill="#903CD3"/>
<path id="Vector_2" d="M40.7291 28.5575C42.3976 28.5575 43.7502 27.205 43.7502 25.5365C43.7502 23.868 42.3976 22.5154 40.7291 22.5154C39.0606 22.5154 37.708 23.868 37.708 25.5365C37.708 27.205 39.0606 28.5575 40.7291 28.5575Z" fill="#903CD3"/>
<path id="Vector_3" d="M21.3941 28.5575C23.0626 28.5575 24.4152 27.205 24.4152 25.5365C24.4152 23.868 23.0626 22.5154 21.3941 22.5154C19.7256 22.5154 18.373 23.868 18.373 25.5365C18.373 27.205 19.7256 28.5575 21.3941 28.5575Z" fill="#903CD3"/>
<path id="Vector_4" d="M24.3709 31.2706C23.1817 30.2962 22.1047 30.4252 20.7297 30.4252C18.6731 30.4252 17 32.0884 17 34.1323V40.1311C17 41.0188 17.7245 41.7405 18.6155 41.7405C22.4619 41.7405 21.9985 41.8101 21.9985 41.5746C21.9985 37.3239 21.495 34.2067 24.3709 31.2706Z" fill="#903CD3"/>
<path id="Vector_5" d="M32.3696 30.4471C29.9679 30.2468 27.8803 30.4494 26.0797 31.9357C23.0665 34.3493 23.6464 37.599 23.6464 41.5746C23.6464 42.6264 24.5021 43.4982 25.57 43.4982C37.1644 43.4982 37.6259 43.8722 38.3134 42.3496C38.5389 41.8347 38.4771 41.9984 38.4771 37.0726C38.4771 33.1603 35.0895 30.4471 32.3696 30.4471Z" fill="#903CD3"/>
<path id="Vector_6" d="M41.3937 30.4251C40.0111 30.4251 38.9401 30.2974 37.7524 31.2704C40.6068 34.1847 40.1248 37.0893 40.1248 41.5745C40.1248 41.8115 39.7401 41.7404 43.4502 41.7404C44.373 41.7404 45.1233 40.9928 45.1233 40.0738V34.1322C45.1233 32.0883 43.4502 30.4251 41.3937 30.4251Z" fill="#903CD3"/>
</g>
</g>
</g>
</svg>
