<svg width="62" height="62" viewBox="0 0 62 62" fill="none" xmlns="http://www.w3.org/2000/svg">
<g id="Group 108">
<rect id="Rectangle 153" width="62" height="62" rx="10" fill="#F8FFCA"/>
<g id="puzzle-piece-plugin">
<g id="Group">
<g id="extension">
<path id="Vector" d="M42.2619 29.9524H40.619V25.5714C40.619 24.3667 39.6333 23.381 38.4286 23.381H34.0476V21.7381C34.0476 20.2048 32.8429 19 31.3095 19C29.7762 19 28.5714 20.2048 28.5714 21.7381V23.381H24.1905C22.9857 23.381 22 24.3667 22 25.5714V29.7333H23.6429C25.2857 29.7333 26.6 31.0476 26.6 32.6905C26.6 34.3333 25.2857 35.6476 23.6429 35.6476H22V39.8095C22 41.0143 22.9857 42 24.1905 42H28.3524V40.3571C28.3524 38.7143 29.6667 37.4 31.3095 37.4C32.9524 37.4 34.2667 38.7143 34.2667 40.3571V42H38.4286C39.6333 42 40.619 41.0143 40.619 39.8095V35.4286H42.2619C43.7952 35.4286 45 34.2238 45 32.6905C45 31.1571 43.7952 29.9524 42.2619 29.9524Z" fill="#C2D932"/>
</g>
</g>
</g>
</g>
</svg>
