<svg width="57" height="57" viewBox="0 0 57 57" fill="none" xmlns="http://www.w3.org/2000/svg">
<g id="rocket 1">
<path id="path7143" d="M50.3355 0.7146C40.975 0.7146 28.4148 7.13656 19.9803 18.1774H12.9882C7.93574 18.1774 5.03996 21.9485 3.04615 25.9366L0.376953 31.2746H6.67841H12.9882L19.5367 37.8231L26.0853 44.3717V50.6814V56.9829L31.4232 54.3141C35.4113 52.3199 39.1824 49.4241 39.1824 44.3717V37.3796C50.2233 28.945 56.6452 16.3849 56.6452 7.02436V0.7146H50.3355ZM39.1824 13.8117C41.5936 13.8117 43.5481 15.7662 43.5481 18.1774C43.5481 20.5886 41.5936 22.5431 39.1824 22.5431C36.7712 22.5431 34.8167 20.5886 34.8167 18.1774C34.8167 15.7662 36.7712 13.8117 39.1824 13.8117ZM10.8053 40.006L8.62246 42.1888C5.46955 45.3417 4.25676 53.1031 4.25676 53.1031C4.25676 53.1031 11.6697 52.2387 15.171 48.7374L17.3539 46.5545L10.8053 40.006Z" fill="#1A2533"/>
</g>
</svg>
