<svg width="19" height="19" viewBox="0 0 19 19" fill="none" xmlns="http://www.w3.org/2000/svg">
<path id="Union" fill-rule="evenodd" clip-rule="evenodd" d="M9.20539 9.26757L5.93581 5.82893L6.20198 5.2894C6.20558 5.27861 6.20918 5.27142 6.21278 5.26422L8.12992 1.37957C8.33135 0.969528 8.74859 0.710551 9.20539 0.714148V9.26757ZM0.364223 8.58775C-0.00246652 8.23544 -0.103267 7.68911 0.112098 7.22526L0.108832 7.22453C0.277886 6.85765 0.623188 6.60227 1.02244 6.54472L5.30994 5.92245C5.31354 5.92245 5.31893 5.92155 5.32433 5.92066C5.32973 5.91976 5.33512 5.91886 5.33872 5.91886L5.93221 5.83253L9.20539 9.26757L9.20538 15.8966L8.67303 16.1772C8.66944 16.179 8.66404 16.1808 8.65865 16.1826C8.65325 16.1844 8.64786 16.1862 8.64426 16.188L4.80997 18.2059C4.38194 18.4361 3.86039 18.3785 3.48991 18.0656L3.49115 18.0637C3.16182 17.7938 3.0009 17.3632 3.07626 16.9433L3.80643 12.6702L3.91433 12.0516L3.91436 12.0516L3.46475 11.6127L0.364223 8.58775ZM10.2809 1.37957C10.0794 0.969528 9.6622 0.710551 9.2054 0.714148V9.26757V15.8966L9.73774 16.1772C9.74853 16.1808 9.75932 16.1844 9.76651 16.188L13.6008 18.2059C14.0252 18.4325 14.5504 18.3785 14.9209 18.0656C15.2518 17.7958 15.41 17.3642 15.3345 16.9433L14.6043 12.6702L14.4964 12.0516L9.20806 9.26897L14.5 12.0516L14.9496 11.6127L18.0502 8.58775C18.417 8.23166 18.5178 7.68493 18.3019 7.22453C18.1329 6.85765 17.7876 6.60227 17.3883 6.54472L13.0972 5.91886C13.0936 5.91886 13.0882 5.91796 13.0828 5.91706C13.0775 5.91616 13.0721 5.91526 13.0685 5.91526L12.475 5.82893L12.2088 5.2894C12.2052 5.27861 12.2016 5.27142 12.198 5.26422L10.2809 1.37957Z" fill="white"/>
</svg>
