<svg width="19" height="19" viewBox="0 0 19 19" fill="none" xmlns="http://www.w3.org/2000/svg">
<g id="whatsapp 1">
<path id="Vector" fill-rule="evenodd" clip-rule="evenodd" d="M15.5042 2.65008C13.7981 0.942054 11.5293 0.00100171 9.11212 0C4.13139 0 0.0777996 4.05348 0.0757962 9.03555C0.0751284 10.6282 0.491172 12.1828 1.28197 13.5532L0 18.2356L4.7903 16.979C6.11022 17.699 7.5962 18.0784 9.10845 18.0789H9.11224C14.0924 18.0789 18.1464 14.0251 18.1483 9.04278C18.1493 6.62821 17.2103 4.358 15.5042 2.65008ZM9.11212 16.5528H9.10901C7.76137 16.5523 6.43967 16.1901 5.28637 15.5059L5.01223 15.3431L2.1696 16.0888L2.92834 13.3173L2.7497 13.0332C1.99786 11.8373 1.60085 10.4552 1.60151 9.03611C1.60307 4.89514 4.97238 1.52616 9.11513 1.52616C11.1212 1.52683 13.007 2.30906 14.425 3.7287C15.843 5.14835 16.6234 7.03535 16.6227 9.04223C16.621 13.1835 13.2519 16.5528 9.11212 16.5528ZM13.2318 10.9278C13.0061 10.8147 11.896 10.2687 11.689 10.1932C11.4822 10.1178 11.3315 10.0803 11.1811 10.3063C11.0305 10.5322 10.5979 11.0409 10.4661 11.1915C10.3343 11.3422 10.2028 11.3611 9.97693 11.248C9.7511 11.135 9.02364 10.8965 8.16117 10.1273C7.49002 9.52861 7.03691 8.78924 6.90513 8.5633C6.77357 8.33713 6.90402 8.22672 7.00419 8.10251C7.24861 7.79899 7.49336 7.48078 7.5686 7.33019C7.64395 7.17949 7.60622 7.0476 7.54968 6.93463C7.49336 6.82165 7.04181 5.71031 6.85371 5.25809C6.67029 4.81801 6.4843 4.87744 6.34562 4.87054C6.21406 4.86398 6.06347 4.86264 5.91288 4.86264C5.7624 4.86264 5.51776 4.91907 5.31074 5.14524C5.10383 5.37129 4.52061 5.91744 4.52061 7.02879C4.52061 8.14013 5.32966 9.21374 5.44252 9.36444C5.55538 9.51515 7.03469 11.7957 9.29955 12.7736C9.83825 13.0064 10.2587 13.1452 10.5868 13.2493C11.1277 13.4212 11.6197 13.3969 12.0089 13.3388C12.4427 13.2739 13.3446 12.7925 13.5329 12.2652C13.721 11.7377 13.721 11.2857 13.6645 11.1915C13.6081 11.0973 13.4575 11.0409 13.2318 10.9278Z" fill="white"/>
</g>
</svg>
