<svg width="57" height="58" viewBox="0 0 57 58" fill="none" xmlns="http://www.w3.org/2000/svg">
<g id="wordpress">
<g id="Group">
<path id="Vector" d="M17.0695 18.1935H13.9622L22.4336 42.1402L27.1761 28.5876L23.4992 18.1935H20.2207V15.9117H34.7389V18.1935H31.3391L39.8104 42.1402L42.8555 33.4381C46.8501 22.2891 39.5815 18.8162 39.5815 16.328C39.5815 13.8399 41.5986 11.8229 44.0866 11.8229C44.2212 11.8229 44.352 11.8302 44.48 11.8421C40.2643 7.8624 34.5797 5.42188 28.3246 5.42188C20.1513 5.42188 12.9519 9.58801 8.73145 15.9117H17.0692V18.1935H17.0695Z" fill="#2EC9D4"/>
<path id="Vector_2" d="M4.78418 28.9622C4.78418 37.9747 9.84975 45.803 17.2882 49.7587L6.66488 19.7289C5.45474 22.564 4.78418 25.6847 4.78418 28.9622Z" fill="#2EC9D4"/>
<path id="Vector_3" d="M48.8115 17.3623C49.1483 19.3449 49.0463 21.5733 48.5296 23.8103H48.6232L48.2673 24.8274C48.0564 25.5618 47.7908 26.3131 47.4891 27.0513L39.3892 49.7435C46.8121 45.783 51.8647 37.9632 51.8647 28.9621C51.8647 24.7443 50.7543 20.7862 48.8115 17.3623Z" fill="#2EC9D4"/>
<path id="Vector_4" d="M21.064 51.3598C23.3509 52.1006 25.7903 52.5025 28.3241 52.5025C30.7409 52.5025 33.0723 52.1377 35.2671 51.4611L28.3813 31.9965L21.064 51.3598Z" fill="#2EC9D4"/>
<path id="Vector_5" d="M48.2183 9.06838C42.9045 3.75457 35.8393 0.828125 28.3244 0.828125C20.8095 0.828125 13.7445 3.75457 8.43069 9.06838C3.11688 14.3822 0.19043 21.4472 0.19043 28.9623C0.19043 36.4772 3.11688 43.5422 8.43069 48.856C13.7445 54.1698 20.8097 57.0963 28.3246 57.0963C35.8395 57.0963 42.9045 54.1698 48.2185 48.856C53.5323 43.5422 56.4587 36.477 56.4587 28.9623C56.4586 21.4472 53.5321 14.3822 48.2183 9.06838ZM28.3244 55.1116C13.9056 55.1116 2.17508 43.3811 2.17508 28.9623C2.17508 14.5435 13.9056 2.81278 28.3244 2.81278C42.7433 2.81278 54.4738 14.5435 54.4738 28.9623C54.4738 43.3811 42.7434 55.1116 28.3244 55.1116Z" fill="#2EC9D4"/>
</g>
</g>
</svg>
