<svg width="31" height="33" viewBox="0 0 31 33" fill="none" xmlns="http://www.w3.org/2000/svg">
<g id="Group 172">
<path id="Vector" d="M13.212 16.7829C12.6287 16.7829 12.0648 16.4328 11.7925 15.8884L11.3259 14.8384H6.69801L6.23133 15.8884C5.95911 16.4328 5.41465 16.7829 4.81186 16.7829H4.55908L6.54245 31.872C6.63967 32.1637 6.83412 32.1637 6.93135 31.872L8.89527 27.0497L10.6064 31.8526C10.7036 32.1442 10.8981 32.1442 10.9953 31.8526L13.2898 16.8023L13.212 16.7829Z" fill="url(#paint0_linear_2002_1689)"/>
<path id="Vector_2" d="M11.1509 14.4302H6.89252L6.25084 15.8885C6.03695 16.3358 5.58972 16.6469 5.12305 16.7441L6.6203 26.0387C6.71752 26.2137 6.91197 26.2137 7.00919 26.0387L8.93422 23.122L10.6843 26.0193C10.8009 26.1943 10.9759 26.1943 11.0732 26.0193L12.7648 16.7052C12.3565 16.5885 11.9871 16.2969 11.7732 15.8885L11.1509 14.4302Z" fill="url(#paint1_linear_2002_1689)"/>
<path id="Vector_3" opacity="0.5" d="M11.812 15.8885L9.0314 9.66614L6.2508 15.8885C6.15357 16.0635 6.03691 16.2385 5.88135 16.3746L7.02859 22.558C7.08692 22.6358 7.24248 22.6747 7.35915 22.558L8.91473 20.4969L10.4703 22.5386C10.5675 22.6553 10.7425 22.6358 10.8009 22.5386L12.0842 16.2774C11.9676 16.1607 11.8703 16.044 11.812 15.8885Z" fill="url(#paint2_linear_2002_1689)"/>
<path id="Vector_4" d="M0.106247 1.18821C0.0284674 0.896535 0.184026 0.682644 0.495142 0.682644H2.94518C3.12019 0.682644 3.27575 0.838202 3.33408 0.974316L5.123 8.03277H5.20078L8.42861 0.702087C8.48695 0.585418 8.60362 0.46875 8.77862 0.46875H9.16752C9.34252 0.46875 9.47863 0.565973 9.51752 0.702087L12.7454 8.03277H12.8231L14.6121 0.974316C14.6509 0.818757 14.8259 0.682644 15.0009 0.682644H17.451C17.7427 0.682644 17.8982 0.896535 17.8399 1.18821L13.8926 15.2079C13.8537 15.3829 13.6787 15.4996 13.5037 15.4996H13.1731C13.0176 15.4996 12.8815 15.4023 12.8231 15.2662L8.99251 6.72997H8.93418L5.14245 15.2662C5.08411 15.3829 4.92855 15.4996 4.79244 15.4996H4.46188C4.28687 15.4996 4.13132 15.3829 4.07298 15.2079L0.106247 1.18821ZM20.0177 1.07154C20.0177 0.857647 20.1927 0.682644 20.4066 0.682644H25.4428C28.0095 0.682644 30.1095 2.76323 30.1095 5.29106C30.1095 7.87721 28.0095 9.97725 25.4622 9.97725H23.265V14.8773C23.265 15.0912 23.09 15.2662 22.8761 15.2662H20.426C20.1927 15.2662 20.0371 15.0912 20.0371 14.8773L20.0177 1.07154ZM25.2678 6.92442C26.1623 6.92442 26.9206 6.20496 26.9206 5.27161C26.9206 4.3966 26.1623 3.71603 25.2678 3.71603H23.2844V6.90497H25.2678" fill="#F56640"/>
<path id="Vector_5" d="M11.812 15.8885L9.0314 9.66614L6.2508 15.8885C6.15357 16.0635 6.03691 16.2385 5.88135 16.3746L7.02859 22.558C7.08692 22.6358 7.24248 22.6747 7.35915 22.558L8.91473 20.4969L10.4703 22.5386C10.5675 22.6553 10.7425 22.6358 10.8009 22.5386L12.0842 16.2774C11.9676 16.1607 11.8703 16.044 11.812 15.8885Z" fill="url(#paint3_linear_2002_1689)"/>
</g>
<defs>
<linearGradient id="paint0_linear_2002_1689" x1="8.94067" y1="32.0703" x2="8.94067" y2="20.4522" gradientUnits="userSpaceOnUse">
<stop stop-color="#F56640"/>
<stop offset="0.2439" stop-color="#F57840"/>
<stop offset="1" stop-color="#FFBE54"/>
</linearGradient>
<linearGradient id="paint1_linear_2002_1689" x1="8.9592" y1="25.9768" x2="8.9592" y2="16.6591" gradientUnits="userSpaceOnUse">
<stop stop-color="#F56640"/>
<stop offset="0.1811" stop-color="#F57840"/>
<stop offset="1" stop-color="#FFBE54"/>
</linearGradient>
<linearGradient id="paint2_linear_2002_1689" x1="8.96481" y1="20.6062" x2="8.96481" y2="9.66575" gradientUnits="userSpaceOnUse">
<stop stop-color="#F56640"/>
<stop offset="0.3911" stop-color="#F57840"/>
<stop offset="1" stop-color="#FFBE54"/>
</linearGradient>
<linearGradient id="paint3_linear_2002_1689" x1="8.96481" y1="23.983" x2="8.96481" y2="6.36494" gradientUnits="userSpaceOnUse">
<stop stop-color="#F56640"/>
<stop offset="0.0837881" stop-color="#F57840"/>
<stop offset="1" stop-color="#FFBE54"/>
</linearGradient>
</defs>
</svg>
