<svg width="62" height="62" viewBox="0 0 62 62" fill="none" xmlns="http://www.w3.org/2000/svg">
<g id="Group 108">
<rect id="Rectangle 153" width="62" height="62" rx="10" fill="#D7FFE5"/>
<g id="whatsapp">
<path id="Vector" fill-rule="evenodd" clip-rule="evenodd" d="M39.9826 21.7569C37.5637 19.3352 34.3468 18.0009 30.9196 17.9995C23.8577 17.9995 18.1103 23.7467 18.1075 30.8106C18.1065 33.0687 18.6964 35.2729 19.8176 37.2159L18 43.8549L24.7919 42.0732C26.6634 43.0941 28.7703 43.6321 30.9144 43.6327H30.9198C37.9809 43.6327 43.729 37.885 43.7316 30.8208C43.7331 27.3973 42.4016 24.1785 39.9826 21.7569ZM30.9196 41.469H30.9152C29.0045 41.4682 27.1305 40.9547 25.4953 39.9846L25.1066 39.7537L21.0762 40.8111L22.1519 36.8815L21.8987 36.4786C20.8327 34.7831 20.2698 32.8234 20.2707 30.8114C20.2729 24.9401 25.0501 20.1634 30.9239 20.1634C33.7682 20.1643 36.442 21.2734 38.4525 23.2863C40.463 25.2991 41.5695 27.9746 41.5686 30.82C41.566 36.6918 36.7892 41.469 30.9196 41.469ZM36.7608 33.4935C36.4407 33.3331 34.8667 32.5589 34.5732 32.4519C34.28 32.3451 34.0663 32.2919 33.8531 32.6123C33.6396 32.9326 33.0262 33.6538 32.8394 33.8673C32.6525 34.081 32.466 34.1078 32.1458 33.9475C31.8256 33.7873 30.7942 33.4491 29.5713 32.3585C28.6197 31.5097 27.9773 30.4613 27.7904 30.141C27.6039 29.8203 27.7889 29.6638 27.9309 29.4877C28.2774 29.0573 28.6245 28.6061 28.7311 28.3926C28.838 28.179 28.7845 27.992 28.7043 27.8318C28.6245 27.6716 27.9842 26.0959 27.7175 25.4547C27.4575 24.8307 27.1938 24.915 26.9971 24.9052C26.8106 24.8959 26.5971 24.894 26.3836 24.894C26.1702 24.894 25.8234 24.974 25.5298 25.2947C25.2365 25.6152 24.4096 26.3896 24.4096 27.9653C24.4096 29.541 25.5567 31.0632 25.7167 31.2769C25.8767 31.4906 27.9741 34.7241 31.1854 36.1106C31.9492 36.4407 32.5454 36.6375 33.0104 36.785C33.7774 37.0287 34.4751 36.9943 35.0268 36.9119C35.6419 36.8199 36.9206 36.1374 37.1876 35.3897C37.4543 34.6419 37.4543 34.001 37.3742 33.8673C37.2943 33.7338 37.0808 33.6538 36.7608 33.4935Z" fill="#32BE62"/>
</g>
</g>
</svg>
