<svg width="95" height="95" viewBox="0 0 95 95" fill="none" xmlns="http://www.w3.org/2000/svg">
<g id="Group 110">
<rect id="Rectangle 132" width="95" height="95" rx="10" fill="#2E4258"/>
<g id="whatsapp 1">
<path id="Vector" fill-rule="evenodd" clip-rule="evenodd" d="M65.7151 30.3012C61.0149 25.5954 54.7639 23.0028 48.1046 23C34.3823 23 23.2143 34.1676 23.2088 47.8936C23.207 52.2813 24.3532 56.5645 26.5319 60.3399L23 73.2404L36.1976 69.7784C39.8341 71.7621 43.9281 72.8074 48.0944 72.8086H48.1049C61.8256 72.8086 72.9948 61.6401 73 47.9135C73.0028 41.2612 70.4156 35.0066 65.7151 30.3012ZM48.1046 68.6043H48.096C44.3831 68.6027 40.7418 67.6049 37.5643 65.72L36.8091 65.2714L28.9774 67.3259L31.0678 59.6902L30.5756 58.9073C28.5042 55.6127 27.4104 51.8048 27.4123 47.8951C27.4166 36.4865 36.6993 27.2047 48.1128 27.2047C53.6398 27.2065 58.8352 29.3616 62.7419 33.2729C66.6485 37.1841 68.7987 42.3829 68.7968 47.912C68.7919 59.3216 59.5098 68.6043 48.1046 68.6043ZM59.4547 53.1068C58.8328 52.7953 55.7743 51.2909 55.204 51.083C54.6342 50.8754 54.219 50.7721 53.8048 51.3945C53.3899 52.017 52.1979 53.4184 51.8349 53.8333C51.4718 54.2485 51.1094 54.3006 50.4872 53.989C49.865 53.6778 47.8608 53.0207 45.4846 50.9015C43.6355 49.252 42.3872 47.215 42.0241 46.5925C41.6617 45.9694 42.0211 45.6652 42.2971 45.323C42.9704 44.4868 43.6447 43.6101 43.852 43.1952C44.0596 42.78 43.9557 42.4166 43.7999 42.1054C43.6447 41.7942 42.4007 38.7323 41.8825 37.4864C41.3771 36.274 40.8647 36.4377 40.4826 36.4187C40.1202 36.4006 39.7053 36.3969 39.2904 36.3969C38.8758 36.3969 38.2018 36.5524 37.6315 37.1755C37.0614 37.7983 35.4546 39.303 35.4546 42.3648C35.4546 45.4266 37.6836 48.3845 37.9945 48.7997C38.3055 49.2149 42.3811 55.498 48.621 58.1922C50.1051 58.8337 51.2636 59.2161 52.1673 59.5028C53.6576 59.9762 55.0132 59.9094 56.0853 59.7493C57.2806 59.5706 59.7653 58.2443 60.2841 56.7915C60.8023 55.3383 60.8023 54.093 60.6466 53.8333C60.4914 53.5738 60.0765 53.4184 59.4547 53.1068Z" fill="#2EC9D4"/>
</g>
</g>
</svg>
